<?xml version="1.0" encoding="utf-8"?>
<!-- Generator: Adobe Illustrator 23.1.1, SVG Export Plug-In . SVG Version: 6.00 Build 0)  -->
<svg version="1.1" id="Livello_1" xmlns="http://www.w3.org/2000/svg" xmlns:xlink="http://www.w3.org/1999/xlink" x="0px" y="0px"
	 viewBox="0 0 48.9 48.9" style="enable-background:new 0 0 48.9 48.9;" xml:space="preserve">
<style type="text/css">
	.st0{fill:#5C5C5B;}
</style>
<path class="st0" d="M24.4,5.2c-10.6,0-19.2,8.6-19.2,19.2s8.6,19.2,19.2,19.2S43.6,35,43.6,24.4S35,5.2,24.4,5.2z M32.9,22.6
	c-0.2,0.2-0.4,0.2-0.6,0.2c-0.2,0-0.4-0.1-0.6-0.2l-6.6-6.6v18.9c0,0.4-0.4,0.8-0.8,0.8s-0.8-0.4-0.8-0.8V15.9l-6.6,6.6
	c-0.2,0.2-0.4,0.2-0.6,0.2c-0.2,0-0.4-0.1-0.6-0.2c-0.3-0.3-0.3-0.8,0-1.1l8-8c0.1-0.1,0.2-0.1,0.3-0.2c0.2-0.1,0.4-0.1,0.6,0
	c0.1,0,0.2,0.1,0.3,0.2l8,8C33.2,21.7,33.2,22.3,32.9,22.6z"/>
</svg>
